<svg width="24" height="24" viewBox="0 0 24 24" fill="none" xmlns="http://www.w3.org/2000/svg">
  <g clip-path="url(#clip0_18572_470737)">
    <g clip-path="url(#clip1_18572_470737)">
      <path fill-rule="evenodd" clip-rule="evenodd"
            d="M12 0C18.6279 0 24 5.37212 24 12C24 18.6279 18.6279 24 12 24C5.37212 24 0 18.6279 0 12C0 5.37212 5.37212 0 12 0Z"
            fill="#1EEFA4"/>
      <path
        d="M13.1846 14.4769C13.1846 13.8822 13.6668 13.4 14.2615 13.4H14.6923C15.2871 13.4 15.7692 13.8822 15.7692 14.4769V14.9077C15.7692 15.5025 15.2871 15.9846 14.6923 15.9846H14.2615C13.6668 15.9846 13.1846 15.5025 13.1846 14.9077V14.4769Z"
        fill="#07222F"/>
      <path
        d="M14.2615 9.52308C13.6668 9.52308 13.1846 10.0052 13.1846 10.6V11.0308C13.1846 11.6255 13.6668 12.1077 14.2615 12.1077H14.6923C15.2871 12.1077 15.7692 11.6255 15.7692 11.0308V10.6C15.7692 10.0052 15.2871 9.52308 14.6923 9.52308H14.2615Z"
        fill="#07222F"/>
      <path fill-rule="evenodd" clip-rule="evenodd"
            d="M9.30769 5C6.92862 5 5 6.92862 5 9.30769V14.6923C5 17.0714 6.92862 19 9.30769 19H14.6923C17.0714 19 19 17.0714 19 14.6923V9.30769C19 6.92862 17.0714 5 14.6923 5H9.30769ZM14.6923 6.72308H9.30769C7.88025 6.72308 6.72308 7.88025 6.72308 9.30769V14.6923C6.72308 16.1198 7.88025 17.2769 9.30769 17.2769H14.6923C16.1198 17.2769 17.2769 16.1198 17.2769 14.6923V9.30769C17.2769 7.88025 16.1198 6.72308 14.6923 6.72308Z"
            fill="#07222F"/>
    </g>
  </g>
  <defs>
    <clipPath id="clip0_18572_470737">
      <rect width="24" height="24" fill="white"/>
    </clipPath>
    <clipPath id="clip1_18572_470737">
      <rect width="24" height="24" fill="white"/>
    </clipPath>
  </defs>
</svg>
