<svg width="41" height="40" viewBox="0 0 41 40" fill="none" xmlns="http://www.w3.org/2000/svg">
  <path
    d="M23.6922 27.0769C23.6922 25.3776 25.0698 24 26.7692 24H27.9999C29.6993 24 31.0768 25.3776 31.0768 27.0769V28.3077C31.0768 30.007 29.6993 31.3846 27.9999 31.3846H26.7692C25.0698 31.3846 23.6922 30.007 23.6922 28.3077V27.0769Z"
    fill="#1EEFA4"/>
  <path
    d="M26.7692 12.9231C25.0698 12.9231 23.6922 14.3007 23.6922 16V17.2308C23.6922 18.9301 25.0698 20.3077 26.7692 20.3077H27.9999C29.6993 20.3077 31.0768 18.9301 31.0768 17.2308V16C31.0768 14.3007 29.6993 12.9231 27.9999 12.9231H26.7692Z"
    fill="#1EEFA4"/>
  <path fill-rule="evenodd" clip-rule="evenodd"
        d="M12.6153 0C5.81796 0 0.307617 5.51034 0.307617 12.3077V27.6923C0.307617 34.4897 5.81796 40 12.6153 40H27.9999C34.7973 40 40.3076 34.4897 40.3076 27.6923V12.3077C40.3076 5.51034 34.7973 0 27.9999 0H12.6153ZM27.9999 4.92308H12.6153C8.5369 4.92308 5.23069 8.22928 5.23069 12.3077V27.6923C5.23069 31.7707 8.5369 35.0769 12.6153 35.0769H27.9999C32.0783 35.0769 35.3845 31.7707 35.3845 27.6923V12.3077C35.3845 8.22928 32.0783 4.92308 27.9999 4.92308Z"
        fill="#1EEFA4"/>
</svg>
